<?xml version="1.0" encoding="UTF-8" standalone="no"?><!-- Generator: Gravit.io --><svg xmlns="http://www.w3.org/2000/svg" xmlns:xlink="http://www.w3.org/1999/xlink" style="isolation:isolate" viewBox="0 0 500 500" width="500pt" height="500pt"><defs><clipPath id="_clipPath_FergB6cNZpbxB5WFp4rZUKPPFtJDPSdu"><rect width="500" height="500"/></clipPath></defs><g clip-path="url(#_clipPath_FergB6cNZpbxB5WFp4rZUKPPFtJDPSdu)"><path d="M 35 0 L 465 0 C 484.317 0 500 15.683 500 35 L 500 465 C 500 484.317 484.317 500 465 500 L 35 500 C 15.683 500 0 484.317 0 465 L 0 35 C 0 15.683 15.683 0 35 0 Z" style="stroke:none;fill:#FFFFFF;stroke-miterlimit:10;"/><g><path d=" M 249.998 51.504 C 137.611 51.504 46.477 142.618 46.477 255.025 C 46.477 344.95 104.792 421.235 185.657 448.149 C 195.825 450.037 199.56 443.734 199.56 438.359 C 199.56 433.506 199.371 417.473 199.283 400.467 C 142.663 412.779 130.716 376.455 130.716 376.455 C 121.458 352.93 108.119 346.675 108.119 346.675 C 89.65 334.044 109.511 334.306 109.511 334.306 C 129.944 335.739 140.709 355.279 140.709 355.279 C 158.861 386.387 188.32 377.395 199.934 372.198 C 201.76 359.044 207.035 350.062 212.855 344.98 C 167.65 339.84 120.127 322.386 120.127 244.402 C 120.127 222.183 128.08 204.027 141.1 189.771 C 138.983 184.648 132.017 163.948 143.068 135.915 C 143.068 135.915 160.155 130.445 199.047 156.777 C 215.285 152.264 232.699 149.996 249.998 149.918 C 267.288 149.996 284.712 152.257 300.98 156.77 C 339.825 130.438 356.892 135.908 356.892 135.908 C 367.97 163.938 361.003 184.642 358.89 189.764 C 371.94 204.02 379.836 222.176 379.836 244.396 C 379.836 322.565 332.225 339.773 286.906 344.815 C 294.209 351.131 300.713 363.52 300.713 382.504 C 300.713 409.735 300.478 431.652 300.478 438.355 C 300.478 443.771 304.144 450.117 314.457 448.119 C 395.275 421.177 453.523 344.916 453.523 255.025 C 453.519 142.625 362.395 51.508 249.998 51.508 L 249.998 51.504 Z " fill-rule="evenodd" fill="rgb(24,22,22)"/><path d=" M 123.561 343.713 C 123.113 344.724 121.522 345.027 120.073 344.336 C 118.59 343.676 117.764 342.297 118.243 341.283 C 118.681 340.238 120.275 339.952 121.748 340.649 C 123.231 341.313 124.073 342.705 123.558 343.716 L 123.561 343.713 Z  M 131.805 352.91 C 130.837 353.81 128.94 353.392 127.652 351.966 C 126.318 350.551 126.068 348.654 127.056 347.74 C 128.06 346.844 129.9 347.268 131.235 348.684 C 132.563 350.12 132.826 352 131.808 352.913 L 131.805 352.91 Z  M 139.832 364.628 C 138.585 365.498 136.543 364.686 135.283 362.876 C 134.036 361.063 134.036 358.889 135.316 358.023 C 136.573 357.153 138.585 357.938 139.866 359.731 C 141.106 361.568 141.106 363.742 139.832 364.625 L 139.832 364.628 Z  M 150.823 375.956 C 149.711 377.186 147.331 376.856 145.592 375.181 C 143.816 373.539 143.321 371.204 144.436 369.977 C 145.569 368.743 147.958 369.087 149.707 370.752 C 151.483 372.39 152.019 374.729 150.829 375.952 L 150.823 375.956 Z  M 165.989 382.531 C 165.493 384.125 163.208 384.85 160.9 384.169 C 158.598 383.471 157.091 381.608 157.563 379.997 C 158.035 378.389 160.337 377.637 162.659 378.362 C 164.961 379.056 166.467 380.91 165.989 382.531 Z  M 182.648 383.748 C 182.705 385.426 180.75 386.815 178.334 386.848 C 175.897 386.906 173.926 385.544 173.902 383.893 C 173.902 382.197 175.816 380.826 178.25 380.778 C 180.666 380.735 182.651 382.083 182.651 383.744 L 182.648 383.748 Z  M 198.144 381.112 C 198.434 382.747 196.752 384.428 194.349 384.877 C 191.99 385.315 189.799 384.297 189.496 382.676 C 189.206 380.998 190.918 379.316 193.277 378.881 C 195.684 378.467 197.841 379.454 198.144 381.116 L 198.144 381.112 Z " fill="rgb(24,22,22)"/></g></g></svg>